<?xml version="1.0" encoding="utf-8"?>
<!-- Generator: Adobe Illustrator 22.1.0, SVG Export Plug-In . SVG Version: 6.00 Build 0)  -->
<svg version="1.1" id="Layer_1" xmlns="http://www.w3.org/2000/svg" xmlns:xlink="http://www.w3.org/1999/xlink" x="0px" y="0px"
	 viewBox="0 0 72.4 100" style="enable-background:new 0 0 72.4 100;" xml:space="preserve">
<style type="text/css">
	.st0{fill:#909090;}
	.st1{enable-background:new    ;}
</style>
<g>
	<g>
		<path class="st0" d="M7.5,21.4l-1.3,7.3H2.4L7.9,0.6h4.6l5.1,28.1h-3.8l-1.3-7.3C12.5,21.4,7.5,21.4,7.5,21.4z M12.1,17.9L11,11.5
			c-0.3-1.9-0.7-4.4-0.9-6.3H10c-0.3,2-0.7,4.7-1,6.4L7.9,18h4.2V17.9z"/>
		<path class="st0" d="M20.5,1.1c1.4-0.3,3.2-0.5,4.8-0.5c2.6,0,4.7,0.5,6.2,2.1c1.4,1.4,1.9,3.3,1.9,5.6c0,3.3-1.4,5.8-3.9,7.1v0.1
			c1.7,0.7,2.6,2.6,3.2,5.9c0.5,3.4,1.1,6.4,1.5,7.3H30c-0.3-0.8-0.9-3.6-1.3-6.8c-0.4-3.6-1.4-4.8-3.4-4.8h-0.9v11.7h-3.9L20.5,1.1
			z M24.4,13.6h1c2.4,0,3.8-2.1,3.8-4.9c0-2.7-1-4.6-3.6-4.7c-0.5,0-1,0-1.3,0.2L24.4,13.6L24.4,13.6z"/>
		<path class="st0" d="M51.9,14.3c0,10.5-3.2,14.7-7.7,14.7c-5,0-7.4-5.9-7.4-14.4c0-8.4,2.8-14.3,7.9-14.3
			C49.9,0.3,51.9,6.7,51.9,14.3L51.9,14.3z M40.9,14.7c0,6.1,1,10.5,3.5,10.5c2.6,0,3.4-5,3.4-10.6c0-5-0.8-10.3-3.4-10.3
			C41.9,4.2,40.9,8.8,40.9,14.7z"/>
		<path class="st0" d="M56.1,28.7V0.6h3.7l4.2,12c0.9,2.5,2.2,6.2,2.9,8.8H67c-0.2-3.6-0.4-7.9-0.4-12.9v-8h3.5v28.1h-3.7l-4.3-11.9
			c-0.9-2.6-2.1-6-2.7-9h-0.1c0.2,3.3,0.3,7.2,0.3,13v7.9L56.1,28.7L56.1,28.7z"/>
	</g>
	<g>
		<path class="st0" d="M6.9,42.4V54h5.9V42.4h3.9v28.1h-3.9V58.1H6.9v12.3H3v-28H6.9z"/>
		<path class="st0" d="M25.3,63.1L24,70.4h-3.8l5.6-28.1h4.6l5.1,28.1h-3.9l-1.3-7.3C30.3,63.1,25.3,63.1,25.3,63.1z M29.8,59.6
			l-1.1-6.4c-0.3-1.9-0.7-4.4-0.9-6.3h-0.1c-0.3,2-0.7,4.7-1,6.4l-1.1,6.4h4.2C29.8,59.7,29.8,59.6,29.8,59.6z"/>
		<path class="st0" d="M51.1,70c-0.8,0.4-2.1,0.7-3.7,0.7c-5.7,0-9-5.2-9-13.9c0-10.8,5.1-14.6,9.5-14.6c1.6,0,2.7,0.3,3.3,0.8
			l-0.8,3.7c-0.5-0.3-1.2-0.5-2.4-0.5c-2.7,0-5.5,2.8-5.5,10.5c0,7.5,2.5,10.3,5.6,10.3c1,0,1.9-0.2,2.5-0.5L51.1,70z"/>
		<path class="st0" d="M55.9,42.4h3.9v12.9h0.1c0.4-1.2,0.9-2.4,1.3-3.5l3.9-9.4h4.4l-5.9,12.1l6,15.9h-4.4L61.1,58l-1.3,2.5v9.9
			h-3.9V42.4z"/>
	</g>
</g>
<g class="st1">
	<path class="st0" d="M16.3,81v2.1h-4.8v2.8h4v7.6h-4v3.3h5.1v2.1H0v-2.1h5.1v-3.3h-4v-7.6h4v-2.8H0.2V81H16.3z M9.4,91.5h4V88h-4
		v-4.9H6.9V88h-4v3.5h4v5.4h2.5V91.5z"/>
	<path class="st0" d="M23.8,81.1c-0.4,1.6-1.1,3.1-1.7,4.6v14h-2V88.9c-0.4,0.7-1,1.3-1.4,2L18,88.6c1.7-2.4,3.1-5.1,3.9-8.3
		L23.8,81.1z M23.5,86.8L22.4,85c2.5-1.1,4.4-2.6,5.7-4.5h1.7c1.1,1.7,2.9,3.2,5.7,4.5l-1.1,1.9c-0.5-0.3-1.1-0.6-1.5-0.9v0.9h-7.8
		V86C24.6,86.4,24,86.6,23.5,86.8z M25.2,99.6h-1.7V88.1h10.7v9.4c0,1.4-0.5,2.1-1.7,2.1h-1.6l-0.2-0.9h-1.2v-4.3h-1.2v4.3h-1.6
		v-4.3h-1.3L25.2,99.6L25.2,99.6z M25.2,90.1v2.5h1.3v-2.5H25.2z M29,82.6c-0.7,0.9-1.5,1.6-2.3,2.4h4.6
		C30.4,84.2,29.6,83.4,29,82.6z M28.2,90.1v2.5h1.2v-2.5H28.2z M32.5,90.1h-1.4v2.5h1.4V90.1z M31.9,97.7c0.3,0,0.5-0.2,0.5-0.7
		v-2.6H31v3.2L31.9,97.7z"/>
	<path class="st0" d="M44.5,87.8v-1.1c-1.3,0.1-2.7,0.1-4.3,0.2l-0.4-1.7c1.7,0,3.4-0.1,4.8-0.1v-0.9h1.9V85
		c1.7-0.1,3.3-0.2,4.5-0.4l0.5,1.7c-1.3,0.2-2.9,0.3-5,0.4v1.2h5.2v1.7h-5.2v1h7.1v1.9H37.4v-1.9h7.1v-1h-5.1v-1.7L44.5,87.8
		L44.5,87.8z M53.3,85.7h-1.9v-2H39.7V86h-1.9v-4.4h6.9c-0.2-0.4-0.3-0.8-0.5-1.2l2.1-0.3c0.2,0.4,0.3,1,0.5,1.5h6.8v4L53.3,85.7
		L53.3,85.7z M51.7,99.7h-1.9V99h-8.6v0.7h-1.9v-6.2h12.5L51.7,99.7L51.7,99.7z M49.8,97.2v-1.9h-8.6v1.9H49.8z"/>
	<path class="st0" d="M62.5,98.4h-1.9v-1.1h-2.7v1.6H56V83.8h1.7c0.3-1.1,0.5-2.3,0.8-3.5l2,0.3c-0.2,1.1-0.4,2.2-0.9,3.2h2.8
		L62.5,98.4L62.5,98.4z M60.6,89.4v-3.6h-2.7v3.6H60.6z M60.6,95.3v-3.9h-2.7v3.9H60.6z M71.9,97.3c-0.2,1.4-1.1,2.2-2.7,2.2
		c-0.3,0-1.1,0-2-0.1l-0.4-2c0.9,0.1,1.5,0.1,2.2,0.1s1.1-0.4,1.2-1.2c0.1-1,0.2-4.5,0.2-10.4h-4.5c-0.5,1.2-1.1,2.4-1.7,3.4
		l-1.3-1.7c1.2-2,2.1-4.4,2.5-7.2l2,0.2c-0.2,1.1-0.4,2.2-0.7,3.2h5.7C72.1,91.1,72,95.5,71.9,97.3z M68.7,93.3l-1.5,1.2
		c-0.7-1.4-1.6-2.9-2.7-4.6l1.6-1.1C67.1,90.5,68.1,92.1,68.7,93.3z"/>
</g>
</svg>
