<?xml version="1.0" encoding="utf-8"?>
<!-- Generator: Adobe Illustrator 22.1.0, SVG Export Plug-In . SVG Version: 6.00 Build 0)  -->
<svg version="1.1" id="Layer_1" xmlns="http://www.w3.org/2000/svg" xmlns:xlink="http://www.w3.org/1999/xlink" x="0px" y="0px"
	 viewBox="0 0 200 200" style="enable-background:new 0 0 200 200;" xml:space="preserve">
<style type="text/css">
	.st0{fill:#909090;}
</style>
<path class="st0" d="M100,0C44.8,0,0,44.8,0,100s44.8,100,100,100s100-44.8,100-100S155.2,0,100,0z M158.2,150.9h-21.8v-40.8
	c0-24.5-29.1-22.6-29.1,0v40.8H85.5v-80h21.8v12.8c10.1-18.8,50.9-20.2,50.9,18V150.9z M60,36c7.1,0,12.7,5.8,12.7,12.8
	S67,61.7,60,61.7c-7.1,0-12.7-5.8-12.7-12.8S52.9,36,60,36z M70.9,70.9v80H49.1v-80H70.9z"/>
</svg>
