<?xml version="1.0" encoding="utf-8"?>
<!-- Generator: Adobe Illustrator 22.1.0, SVG Export Plug-In . SVG Version: 6.00 Build 0)  -->
<svg version="1.1" id="Layer_1" xmlns="http://www.w3.org/2000/svg" xmlns:xlink="http://www.w3.org/1999/xlink" x="0px" y="0px"
	 viewBox="0 0 200 200" style="enable-background:new 0 0 200 200;" xml:space="preserve">
<style type="text/css">
	.st0{fill:#909090;}
	.st1{fill:#FFFFFF;}
</style>
<circle class="st0" cx="100" cy="100" r="100"/>
<path class="st1" d="M150.2,53.7c-1.4,7-2.8,13.8-4.2,20.6c-4.7,22.8-9.5,45.5-14.3,68.3c-1.2,5.7-2.7,6.3-7.5,2.8
	c-7.3-5.3-14.6-10.4-21.7-15.9c-3.4-2.7-6.1-2.4-9.2,0.4c-3.5,3.1-7.2,6-10.9,8.9c-3.7,2.9-5.4,2.4-6.9-2.2
	c-2.9-9.1-5.7-18.1-8.4-27.2c-0.6-2.1-1.7-3.3-3.8-4.1c-6.8-2.4-13.5-5-20.3-7.6c-1.9-0.7-4.5-1-4.4-3.8c0.1-2.6,2.4-2.9,4.3-3.6
	c29.1-11.2,58.1-22.4,87.2-33.6c5.1-2,10.2-4,15.4-5.9C148.4,49.7,149.9,50.9,150.2,53.7z M126,69.8c-17.6,10.9-34.7,21.4-51.7,32
	c-1.8,1.1-2.5,3.2-1.8,5.3c1.7,5.9,3.4,11.8,5.1,17.7c0.3,1,0.3,2.4,1.9,2.1c1.1-0.2,1.1-1.4,1.3-2.3c0.2-1,0.2-2.1,0.3-3.2
	c0.7-5.1,1.6-9.7,5.9-13.5c12.4-11,24.4-22.5,36.6-33.9C124.5,73.2,126.1,72.6,126,69.8z"/>
</svg>
